<?xml version="1.0" encoding="UTF-8"?>
<svg id="Layer_1" data-name="Layer 1" xmlns="http://www.w3.org/2000/svg" viewBox="0 0 500 500">
  <defs>
    <style>
      .cls-1 {
        fill: #9b8ebc;
      }

      .cls-1, .cls-2, .cls-3, .cls-4 {
        stroke-width: 0px;
      }

      .cls-2 {
        fill: #26105b;
      }

      .cls-3 {
        fill: #fdda41;
      }

      .cls-4 {
        fill: #ffa300;
      }
    </style>
  </defs>
  <g id="fo9TtK.tif">
    <g>
      <path class="cls-2" d="M302.91,412.36c.03,8.47.32,16.95.03,25.41-.58,16.8-12.67,31.02-30.19,35.99-.78.22-1.82-.13-2.21.98h-20.21c-1.17-1.28-1.36-2.87-1.37-4.5-.08-14.59-.08-29.18,0-43.77,0-1.32.14-2.63.73-3.83,1.49-2.15,3.81-1.84,5.95-1.86,6.69-.08,13.39-.12,20.08,0,8.3.14,15.77-2.22,22.56-6.92,1.36-.94,2.59-2.55,4.63-1.48Z"/>
      <path class="cls-4" d="M250.34,422.09c0,17.55,0,35.1,0,52.65h-21.08c-.67-1.39-2.1-1.39-3.3-1.78-17.35-5.67-27.85-19.59-28.28-37.82-.18-7.86.01-15.73.04-23.6,1.68-.43,2.75.72,3.88,1.58,7.16,5.46,15.39,7.54,24.23,7.64,6.14.07,12.28,0,18.41.03,1.88.01,3.82-.21,5.58.74.17.18.35.37.52.55Z"/>
      <path class="cls-4" d="M25.45,246.33c3.52-7.59,9.51-10.01,17.71-9.79,15.77.43,31.56.1,47.34.14,8.95.02,14.86,5.3,14.86,13.17,0,7.87-5.91,13.15-14.86,13.17-15.78.03-31.57-.3-47.34.14-8.19.22-14.19-2.2-17.71-9.79v-7.03Z"/>
      <path class="cls-1" d="M302.91,412.36c-2.95.7-4.66,3.28-7.21,4.7-6.43,3.58-13.16,5.09-20.44,5-8.31-.11-16.62,0-24.92.03,0,0,0-.11,0-.11-2.01-2.39-1.41-5.28-1.41-8-.04-40.21-.03-80.42-.03-120.63,0-51.32-.01-102.64.03-153.97,0-2.71-.65-5.61,1.43-7.98,26.52-.37,50.25,7.91,71.34,23.69,24.31,18.2,39.72,42.45,45.13,72.21,7.43,40.86-3.92,76.59-32.55,106.67-11.43,12.01-17.61,26.33-17.75,42.62-.12,13.93-4.05,25.76-13.62,35.78Z"/>
      <path class="cls-3" d="M250.35,131.4c0,96.86-.01,193.72-.02,290.58-10.87-.31-21.75.81-32.61-.73-7.78-1.1-14.23-4.63-20.01-9.7-8.78-8.26-13.24-18.54-13.19-30.46.09-19.92-6.95-36.39-20.88-50.78-18.49-19.09-28.78-42.41-31.1-68.97-3.43-39.19,8.76-72.7,37.8-99.44,19.55-18,42.89-27.96,69.52-29.93,3.49-.26,6.96-.91,10.49-.57Z"/>
      <path class="cls-4" d="M138.44,151.26c-3.83-.22-7.07-1.75-9.76-4.44-12.02-11.99-24.1-23.93-36.01-36.03-5.91-5.99-6.06-13.82-.77-19.22,5.41-5.53,13.37-5.37,19.54.72,11.98,11.82,23.84,23.78,35.71,35.71,4.3,4.32,5.94,9.42,3.41,15.22-2.26,5.18-6.55,7.66-12.12,8.04Z"/>
      <path class="cls-2" d="M250.36,25.1c7.61,0,13.09,5.15,13.13,12.67.09,18.09.09,36.19,0,54.28-.04,7.52-5.52,12.67-13.13,12.67-1.63-1.65-1.42-3.77-1.42-5.79-.04-22.68-.04-45.36,0-68.04,0-2.02-.21-4.15,1.42-5.79Z"/>
      <path class="cls-4" d="M250.36,25.1c0,26.54,0,53.08,0,79.63-7.86-.39-13.06-5.23-13.13-12.88-.15-17.96-.15-35.92,0-53.87.07-7.65,5.26-12.49,13.13-12.88Z"/>
    </g>
  </g>
</svg>