<?xml version="1.0" encoding="UTF-8"?>
<svg id="Layer_1" data-name="Layer 1" xmlns="http://www.w3.org/2000/svg" viewBox="0 0 500 500">
  <defs>
    <style>
      .cls-1 {
        fill: #fecb33;
      }

      .cls-1, .cls-2, .cls-3, .cls-4 {
        stroke-width: 0px;
      }

      .cls-2 {
        fill: #fdda41;
      }

      .cls-3 {
        fill: #fd9823;
      }

      .cls-4 {
        fill: #fda732;
      }
    </style>
  </defs>
  <g id="fo9TtK.tif">
    <g>
      <path class="cls-3" d="M302.56,412.44c.03,8.47.32,16.95.03,25.41-.58,16.8-12.67,31.02-30.19,35.99-.78.22-1.82-.13-2.21.98h-20.21c-1.17-1.28-1.36-2.87-1.37-4.5-.08-14.59-.08-29.18,0-43.77,0-1.32.14-2.63.73-3.83,1.49-2.15,3.81-1.84,5.95-1.86,6.69-.08,13.39-.12,20.09,0,8.3.14,15.77-2.22,22.56-6.92,1.36-.94,2.59-2.55,4.63-1.48Z"/>
      <path class="cls-4" d="M249.99,422.17c0,17.55,0,35.1,0,52.65h-21.08c-.67-1.39-2.1-1.39-3.3-1.78-17.35-5.67-27.85-19.59-28.28-37.82-.18-7.86.01-15.73.04-23.6,1.68-.43,2.75.72,3.88,1.58,7.16,5.46,15.39,7.54,24.23,7.64,6.14.07,12.28,0,18.41.03,1.88.01,3.82-.21,5.58.74.17.18.35.37.52.55Z"/>
      <path class="cls-3" d="M474.89,253.43c-3.55,7.57-9.53,10.02-17.75,9.79-16.24-.45-32.5-.06-48.75-.18-7.22-.05-12.78-5.23-13.37-12.01-.56-6.42,3.82-12.46,10.28-13.93,1.69-.38,3.49-.36,5.23-.36,15.96-.02,31.92.22,47.88-.11,8.21-.17,13.71,2.88,16.49,10.64v6.15Z"/>
      <path class="cls-1" d="M302.56,412.44c-2.95.7-4.66,3.28-7.21,4.7-6.43,3.58-13.16,5.09-20.44,5-8.31-.11-16.62,0-24.93.03,0,0,0-.11,0-.11-2.01-2.39-1.41-5.28-1.41-8-.04-40.06-.03-80.13-.03-120.19,0-51.47-.01-102.94.03-154.41,0-2.71-.65-5.61,1.43-7.98,26.53-.37,50.26,7.91,71.34,23.69,24.31,18.2,39.72,42.45,45.13,72.21,7.43,40.86-3.92,76.59-32.55,106.67-11.43,12.01-17.61,26.33-17.75,42.62-.12,13.93-4.05,25.76-13.62,35.78Z"/>
      <path class="cls-2" d="M250,131.47c0,96.86-.01,193.72-.02,290.58-10.87-.31-21.75.81-32.61-.73-7.78-1.1-14.23-4.63-20.01-9.7-8.78-8.26-13.24-18.54-13.19-30.46.09-19.92-6.95-36.39-20.88-50.78-18.49-19.09-28.78-42.41-31.1-68.97-3.43-39.19,8.76-72.7,37.8-99.44,19.55-18,42.89-27.96,69.52-29.93,3.49-.26,6.97-.91,10.49-.57Z"/>
      <path class="cls-4" d="M65.16,236.74c8.35,0,16.69-.03,25.04,0,8.93.04,14.86,5.39,14.8,13.28-.06,7.72-5.93,13.04-14.57,13.06-16.98.04-33.97.05-50.95,0-8.55-.03-14.42-5.53-14.36-13.27.06-7.72,5.93-13.01,14.57-13.06,8.49-.05,16.98,0,25.48-.01Z"/>
      <path class="cls-4" d="M151.4,138.22c-.58,5.81-3.19,9.87-8.21,11.99-5.44,2.3-10.4.98-14.53-3.03-6.41-6.21-12.67-12.58-18.99-18.9-6.01-6-12.09-11.93-17.96-18.06-3.71-3.87-5.05-8.55-3.15-13.76,1.74-4.79,5.27-7.64,10.27-8.57,4.55-.84,8.45.74,11.6,3.86,12.38,12.26,24.67,24.6,36.95,36.96,2.69,2.71,3.98,6.08,4.02,9.5Z"/>
      <path class="cls-3" d="M412.29,100.55c-.24,4.21-1.73,7.47-4.42,10.17-12.11,12.11-24.15,24.3-36.38,36.28-5.78,5.66-13.57,5.65-18.86.45-5.3-5.21-5.47-13.1.14-18.85,12.18-12.46,24.52-24.75,36.94-36.96,4.23-4.15,9.39-5.22,14.96-2.62,5.03,2.35,7.19,6.6,7.63,11.52Z"/>
      <path class="cls-3" d="M250,25.18c7.61,0,13.09,5.15,13.13,12.67.09,18.09.09,36.19,0,54.28-.04,7.52-5.52,12.67-13.13,12.67-1.63-1.65-1.42-3.77-1.42-5.79-.04-22.68-.04-45.36,0-68.04,0-2.02-.21-4.15,1.42-5.79Z"/>
      <path class="cls-4" d="M250,25.18c0,26.54,0,53.08,0,79.63-7.86-.39-13.06-5.23-13.13-12.88-.15-17.96-.15-35.92,0-53.87.07-7.65,5.26-12.49,13.13-12.88Z"/>
    </g>
  </g>
</svg>